<?xml version="1.0" encoding="utf-8"?>
<!-- Generator: Adobe Illustrator 24.3.0, SVG Export Plug-In . SVG Version: 6.00 Build 0)  -->
<svg version="1.1" id="Layer_1" xmlns="http://www.w3.org/2000/svg" xmlns:xlink="http://www.w3.org/1999/xlink" x="0px" y="0px"
	 viewBox="0 0 500 500" style="enable-background:new 0 0 500 500;" xml:space="preserve">
<style type="text/css">
	.st0{clip-path:url(#SVGID_6_);fill:url(#SVGID_7_);}
	.st1{clip-path:url(#SVGID_9_);fill:url(#SVGID_10_);}
</style>
<g>
	<g>
		<defs>
			<path id="SVGID_1_" d="M155.73,160.77L45.12,271.38c-12.48,12.48-3.65,33.83,13.98,33.83h158.47h62.83
				c17.63,0,26.46-21.35,13.99-33.83l-45.4-45.4l-65.21-65.21c-3.88-3.88-8.95-5.83-14.03-5.83
				C164.69,154.95,159.62,156.89,155.73,160.77"/>
		</defs>
		<clipPath id="SVGID_2_">
			<use xlink:href="#SVGID_1_"  style="overflow:visible;"/>
		</clipPath>
	</g>
	<g>
		<g>
			<g>
				<g>
					<defs>
						<path id="SVGID_3_" d="M452.86,271.38L342.25,160.77c-7.77-7.76-20.29-7.76-28.05,0l-65.21,65.21l-45.4,45.4
							c-12.48,12.48-3.64,33.83,13.99,33.83h62.83h158.47C456.51,305.21,465.34,283.86,452.86,271.38"/>
					</defs>
					<clipPath id="SVGID_4_">
						<use xlink:href="#SVGID_3_"  style="overflow:visible;"/>
					</clipPath>
				</g>
			</g>
		</g>
	</g>
	<g>
		<defs>
			<path id="SVGID_5_" d="M155.73,160.77L45.12,271.38c-12.48,12.48-3.65,33.83,13.98,33.83h158.47h62.83
				c17.63,0,26.46-21.35,13.99-33.83l-45.4-45.4l-65.21-65.21c-3.88-3.88-8.95-5.83-14.03-5.83
				C164.69,154.95,159.62,156.89,155.73,160.77"/>
		</defs>
		<clipPath id="SVGID_6_">
			<use xlink:href="#SVGID_5_"  style="overflow:visible;"/>
		</clipPath>
		
			<linearGradient id="SVGID_7_" gradientUnits="userSpaceOnUse" x1="-1.3913" y1="497.4833" x2="2.0273" y2="497.4833" gradientTransform="matrix(69.1765 11.2941 11.2941 -69.1765 -5449.6045 34644.0977)">
			<stop  offset="0" style="stop-color:#F89625"/>
			<stop  offset="0.5211" style="stop-color:#EE3F97"/>
			<stop  offset="1" style="stop-color:#92278F"/>
		</linearGradient>
		<polygon class="st0" points="39.76,111.34 330.77,158.85 299.75,348.82 8.75,301.31 		"/>
	</g>
	<g>
		<g>
			<g>
				<defs>
					<path id="SVGID_8_" d="M452.86,271.38L342.25,160.77c-7.77-7.76-20.29-7.76-28.05,0l-65.21,65.21l-45.4,45.4
						c-12.48,12.48-3.64,33.83,13.99,33.83h62.83h158.47C456.51,305.21,465.34,283.86,452.86,271.38"/>
				</defs>
				<clipPath id="SVGID_9_">
					<use xlink:href="#SVGID_8_"  style="overflow:visible;"/>
				</clipPath>
				
					<linearGradient id="SVGID_10_" gradientUnits="userSpaceOnUse" x1="-0.5293" y1="502.705" x2="2.8893" y2="502.705" gradientTransform="matrix(-58.5882 25.4118 25.4118 58.5882 -12411.2695 -29238.7188)">
					<stop  offset="0" style="stop-color:#44C8F5"/>
					<stop  offset="1" style="stop-color:#466CB4"/>
				</linearGradient>
				<polygon class="st1" points="520.91,281.11 234.53,405.32 135.55,177.11 421.92,52.9 				"/>
			</g>
		</g>
	</g>
</g>
</svg>
