<svg id="svg" version="1.1" xmlns="http://www.w3.org/2000/svg" xmlns:xlink="http://www.w3.org/1999/xlink" width="400" height="271.49321266968326" viewBox="0, 0, 400,271.49321266968326"><g id="svgg"><path id="path0" d="M0.000 135.777 L 0.000 271.555 200.000 271.555 L 400.000 271.555 400.000 135.777 L 400.000 0.000 200.000 0.000 L 0.000 0.000 0.000 135.777 M177.991 93.987 C 179.835 94.499,188.058 102.172,198.983 113.575 C 201.479 116.181,201.467 116.183,204.943 112.472 C 206.556 110.751,208.089 109.150,208.351 108.914 C 208.613 108.679,209.101 108.194,209.437 107.836 C 209.773 107.479,210.205 107.051,210.397 106.886 C 210.589 106.720,213.526 103.836,216.923 100.475 C 224.068 93.406,223.622 93.686,227.729 93.686 C 230.992 93.686,231.458 93.805,232.568 94.915 C 232.938 95.285,233.360 95.587,233.506 95.587 C 233.652 95.587,233.845 95.819,233.935 96.102 C 234.025 96.385,234.515 96.902,235.024 97.251 C 235.534 97.599,236.007 98.101,236.076 98.364 C 236.145 98.628,236.426 98.925,236.702 99.026 C 237.229 99.218,239.778 101.823,239.781 102.172 C 239.782 102.284,239.918 102.376,240.084 102.376 C 240.476 102.376,243.313 105.213,243.313 105.605 C 243.313 105.771,243.443 105.906,243.601 105.906 C 243.882 105.906,250.317 112.060,252.795 114.699 C 253.479 115.428,256.117 118.135,258.656 120.714 C 261.195 123.294,263.409 125.569,263.575 125.771 C 263.742 125.972,264.139 126.317,264.458 126.537 C 264.777 126.756,265.037 127.095,265.037 127.289 C 265.037 127.483,265.329 127.775,265.686 127.938 C 266.043 128.101,266.492 128.526,266.683 128.883 C 266.874 129.240,267.132 129.532,267.256 129.532 C 267.628 129.532,268.568 130.589,268.568 131.007 C 268.568 131.221,268.819 131.476,269.126 131.573 C 269.433 131.671,269.892 132.194,270.144 132.737 C 270.397 133.280,270.818 133.942,271.079 134.208 C 271.800 134.941,271.754 138.438,271.012 139.382 C 270.713 139.761,270.468 140.210,270.468 140.379 C 270.468 141.182,267.765 143.346,266.531 143.531 C 264.078 143.899,142.626 143.766,138.383 143.390 C 135.343 143.122,134.645 142.769,133.751 141.051 C 133.447 140.466,132.959 139.633,132.666 139.202 C 131.332 137.230,132.007 134.438,134.447 131.840 C 138.364 127.668,143.812 122.091,147.824 118.145 C 150.492 115.521,154.524 111.491,156.785 109.189 C 162.752 103.115,169.980 96.032,170.497 95.755 C 170.743 95.623,171.287 95.196,171.706 94.806 C 172.269 94.283,172.873 94.054,174.014 93.932 C 176.483 93.667,176.857 93.672,177.991 93.987 M151.809 151.668 C 152.265 151.904,152.684 152.391,152.788 152.807 C 152.963 153.503,152.979 153.509,153.185 152.952 C 153.705 151.546,157.411 150.872,158.977 151.898 C 159.633 152.328,159.674 152.487,159.674 154.619 C 159.674 158.746,160.159 160.571,160.675 158.388 C 160.813 157.802,161.152 157.255,161.475 157.093 C 161.783 156.940,162.347 156.451,162.730 156.006 L 163.425 155.199 166.651 155.199 L 169.876 155.199 171.242 156.350 C 172.892 157.742,172.685 157.735,174.070 156.444 C 175.995 154.648,181.245 154.530,183.074 156.241 C 183.576 156.711,184.290 157.292,184.661 157.534 C 185.297 157.948,185.345 158.152,185.489 161.064 L 185.643 164.155 185.693 161.049 C 185.748 157.685,186.018 156.931,187.600 155.744 C 189.218 154.530,195.521 155.238,195.902 156.678 C 196.292 158.154,196.302 158.682,195.954 159.514 C 195.571 160.432,195.957 162.863,196.597 163.558 C 196.884 163.870,196.123 166.956,195.574 167.707 C 194.090 169.735,186.379 169.502,185.855 167.413 C 185.644 166.574,184.136 166.906,183.094 168.021 C 181.475 169.755,174.519 169.410,173.522 167.546 C 173.105 166.768,172.413 166.878,171.196 167.918 C 168.276 170.414,160.489 168.771,160.489 165.659 C 160.489 165.354,160.367 165.105,160.217 165.105 C 160.068 165.105,159.946 165.407,159.946 165.775 C 159.946 169.313,155.047 170.137,153.244 166.902 C 152.992 166.450,152.939 166.497,152.786 167.312 C 152.517 168.750,152.029 168.895,147.260 168.949 C 142.748 169.000,141.757 168.792,140.885 167.614 C 140.690 167.349,140.189 166.915,139.774 166.650 C 139.326 166.364,138.950 165.830,138.853 165.343 C 138.656 164.361,138.232 164.806,138.225 166.001 C 138.213 168.274,136.852 169.030,132.793 169.019 C 129.719 169.010,128.371 168.598,128.043 167.566 C 127.950 167.273,127.655 166.964,127.386 166.879 C 125.220 166.191,125.549 159.168,127.861 156.757 C 129.745 154.791,134.784 154.284,136.169 155.920 C 136.476 156.283,137.064 156.791,137.475 157.047 C 137.885 157.304,138.221 157.749,138.221 158.035 C 138.221 159.028,138.700 158.837,140.513 157.120 C 142.390 155.342,143.032 155.068,145.332 155.061 C 147.093 155.055,147.726 154.661,147.726 153.568 C 147.726 152.402,148.411 151.730,149.835 151.498 C 150.392 151.407,150.885 151.316,150.930 151.294 C 150.975 151.273,151.370 151.441,151.809 151.668 M214.295 152.000 C 216.182 152.834,216.740 155.522,215.232 156.510 C 214.551 156.956,212.324 156.541,211.103 155.742 C 210.313 155.224,209.122 155.225,208.434 155.745 C 208.144 155.965,207.708 156.144,207.466 156.144 C 205.487 156.144,204.225 161.481,205.912 162.710 C 206.320 163.007,206.653 163.413,206.653 163.613 C 206.653 164.944,212.205 164.866,213.462 163.517 C 214.631 162.262,216.158 163.096,216.158 164.989 C 216.158 166.609,216.011 166.868,214.448 168.015 L 213.066 169.030 209.520 169.028 C 206.001 169.027,204.209 168.620,204.209 167.821 C 204.209 167.679,203.851 167.378,203.414 167.152 C 202.976 166.926,202.539 166.491,202.442 166.186 C 202.345 165.881,201.976 165.318,201.622 164.936 C 200.118 163.313,200.053 155.329,201.544 155.329 C 201.673 155.329,201.897 155.019,202.041 154.639 C 202.185 154.260,202.671 153.740,203.121 153.485 C 203.571 153.230,204.004 152.820,204.083 152.575 C 204.520 151.223,211.633 150.822,214.295 152.000 M113.180 152.137 C 113.564 152.325,114.137 152.967,114.452 153.564 C 114.767 154.162,115.356 154.981,115.761 155.385 C 116.166 155.789,116.497 156.308,116.497 156.539 C 116.497 156.770,116.568 156.959,116.654 156.959 C 116.952 156.959,118.941 154.674,118.941 154.332 C 118.941 153.926,120.595 152.222,121.415 151.783 C 122.178 151.374,124.272 151.699,124.895 152.322 C 125.920 153.347,125.809 167.713,124.770 168.473 C 123.046 169.733,121.080 169.053,120.341 166.941 C 119.758 165.272,119.027 164.737,117.878 165.138 C 116.916 165.473,115.915 165.299,115.307 164.691 C 114.937 164.321,114.861 164.399,114.584 165.438 C 113.816 168.319,113.218 168.907,111.061 168.907 C 108.281 168.907,108.215 168.702,108.215 160.178 C 108.215 153.869,108.246 153.450,108.758 152.876 C 109.916 151.578,111.492 151.315,113.180 152.137 M287.713 152.440 C 287.891 152.618,288.121 153.217,288.225 153.771 C 288.428 154.853,289.013 155.329,290.138 155.329 C 292.612 155.329,292.102 158.678,289.532 159.307 C 288.499 159.559,288.400 159.813,288.395 162.200 L 288.391 164.318 289.274 164.688 C 291.867 165.775,292.462 168.295,290.231 168.747 C 285.305 169.745,284.036 168.588,283.746 162.830 C 283.639 160.721,283.541 158.958,283.528 158.914 C 283.514 158.869,283.094 159.144,282.595 159.525 C 281.524 160.342,279.926 160.445,278.546 159.787 C 277.168 159.130,275.945 159.550,275.214 160.932 L 274.635 162.028 275.199 163.210 C 275.927 164.734,276.832 165.034,278.769 164.394 C 282.174 163.270,283.976 165.369,281.670 167.774 C 279.876 169.644,273.366 169.679,272.777 167.821 C 272.682 167.522,272.432 167.278,272.221 167.278 C 271.668 167.278,271.067 166.232,270.854 164.898 C 270.633 163.510,269.925 163.763,269.925 165.230 C 269.925 166.177,268.323 168.517,267.520 168.743 C 263.604 169.841,258.239 168.352,258.247 166.169 C 258.250 165.237,257.869 165.450,257.287 166.704 C 255.345 170.897,252.651 169.370,252.550 164.019 C 252.492 160.941,251.370 159.123,249.997 159.884 C 248.787 160.555,248.753 160.648,248.748 163.259 C 248.739 168.356,247.633 169.891,244.965 168.511 C 243.973 167.999,243.855 167.343,243.863 162.424 C 243.874 155.667,243.985 155.498,248.595 155.234 C 253.312 154.965,253.675 155.068,255.850 157.296 C 257.636 159.125,258.248 159.381,258.248 158.300 C 258.248 158.010,258.523 157.523,258.859 157.216 C 259.196 156.910,259.806 156.330,260.216 155.926 C 261.413 154.751,266.678 154.816,267.660 156.019 C 268.021 156.461,268.701 157.281,269.173 157.842 C 270.343 159.233,270.456 159.437,270.488 160.217 C 270.504 160.591,270.697 160.132,270.919 159.199 C 271.140 158.265,271.420 157.502,271.541 157.502 C 271.662 157.502,272.253 157.024,272.855 156.440 C 274.610 154.736,279.818 154.493,281.048 156.056 L 281.590 156.745 282.479 156.004 C 283.549 155.110,283.654 154.934,283.886 153.641 C 284.205 151.863,286.436 151.163,287.713 152.440 M227.145 156.023 C 230.199 158.370,231.601 162.355,230.206 164.725 C 228.085 168.330,227.035 168.973,223.285 168.963 C 220.179 168.955,219.126 168.664,218.592 167.667 C 218.397 167.304,218.028 167.006,217.772 167.006 C 216.518 167.006,215.983 163.187,216.705 159.381 C 217.004 157.803,218.956 155.683,220.481 155.280 C 222.019 154.873,226.264 155.346,227.145 156.023 M241.624 156.557 C 243.151 158.105,243.313 158.765,243.313 163.424 C 243.313 168.052,243.028 168.893,241.454 168.903 C 239.615 168.915,238.718 167.106,238.669 163.288 C 238.630 160.212,238.478 159.828,237.260 159.726 C 235.961 159.617,235.742 160.140,235.449 164.060 C 235.212 167.222,234.865 168.020,233.414 168.741 C 231.461 169.710,231.093 168.617,231.093 161.859 C 231.093 155.234,231.020 155.387,234.216 155.238 C 239.118 155.009,240.307 155.220,241.624 156.557 M222.362 159.595 C 220.263 159.917,220.471 164.372,222.597 164.620 C 224.777 164.875,225.516 164.303,225.606 162.292 L 225.686 160.512 224.599 159.957 C 224.001 159.652,223.415 159.421,223.297 159.443 C 223.179 159.466,222.758 159.534,222.362 159.595 M166.456 161.169 C 165.093 161.626,165.033 162.506,166.323 163.121 C 167.160 163.521,167.391 163.536,167.886 163.227 C 168.206 163.027,169.116 162.879,169.909 162.897 C 171.261 162.928,171.351 162.890,171.351 162.275 C 171.351 160.969,171.139 160.772,170.223 161.229 C 169.502 161.589,169.281 161.591,168.401 161.245 C 167.599 160.930,167.213 160.915,166.456 161.169 M177.868 161.439 C 177.083 162.907,178.243 163.906,179.442 162.794 L 180.177 162.112 179.362 161.446 C 178.344 160.613,178.310 160.613,177.868 161.439 M145.329 161.600 C 145.067 162.020,145.073 162.270,145.356 162.811 L 145.714 163.494 146.341 162.826 C 146.993 162.132,146.941 161.755,146.135 161.324 C 145.779 161.134,145.577 161.203,145.329 161.600 " stroke="none" fill="#f4f4f4" fill-rule="evenodd"></path><path id="path1" d="M225.364 94.765 C 224.348 95.068,222.112 97.067,219.534 99.977 C 219.225 100.326,218.736 100.807,218.448 101.046 C 218.159 101.286,216.596 102.844,214.975 104.509 C 213.354 106.174,211.918 107.536,211.784 107.536 C 211.650 107.536,211.541 107.664,211.541 107.820 C 211.541 107.977,211.236 108.388,210.862 108.734 C 210.489 109.080,210.183 109.624,210.183 109.943 C 210.183 110.383,210.017 110.523,209.491 110.523 C 208.820 110.523,207.858 111.956,208.180 112.477 C 208.505 113.003,210.183 111.786,210.183 111.024 C 210.183 110.748,210.372 110.523,210.603 110.523 C 210.834 110.523,211.328 110.217,211.702 109.844 C 212.075 109.470,212.484 109.165,212.612 109.165 C 212.739 109.165,213.225 108.730,213.692 108.197 C 214.159 107.665,215.241 106.882,216.096 106.457 C 217.887 105.567,218.598 104.882,219.496 103.184 C 219.849 102.517,220.311 101.968,220.524 101.964 C 221.381 101.949,222.027 101.522,222.304 100.788 C 222.485 100.311,223.001 99.816,223.653 99.498 C 224.652 99.009,224.796 98.789,225.296 96.979 C 225.373 96.702,225.752 96.639,226.759 96.736 C 228.363 96.890,228.305 96.848,228.511 98.017 C 228.700 99.090,229.005 99.706,229.352 99.717 C 229.685 99.728,230.738 100.475,230.420 100.475 C 230.282 100.475,230.319 100.625,230.502 100.807 C 230.684 100.990,231.228 101.106,231.710 101.066 C 232.599 100.991,232.761 101.177,233.346 102.948 C 233.486 103.373,234.626 103.734,235.829 103.734 C 236.224 103.734,236.579 104.031,236.887 104.616 C 237.142 105.102,237.610 105.908,237.928 106.407 C 238.245 106.906,238.609 107.874,238.737 108.557 C 239.020 110.073,238.999 110.052,240.256 110.131 C 240.817 110.166,241.401 110.207,241.553 110.223 C 241.705 110.238,242.403 110.801,243.104 111.473 C 243.806 112.145,244.561 112.695,244.784 112.695 C 245.006 112.695,245.391 113.123,245.639 113.646 C 245.887 114.168,246.240 114.596,246.424 114.596 C 246.607 114.596,247.234 115.055,247.818 115.615 C 248.402 116.176,249.288 116.940,249.786 117.313 C 251.230 118.393,251.460 118.670,251.460 119.330 C 251.460 119.673,251.826 120.414,252.274 120.978 C 252.722 121.541,253.089 122.241,253.089 122.531 C 253.089 123.211,254.566 124.635,255.949 125.289 C 256.542 125.569,257.332 125.964,257.705 126.167 C 258.079 126.369,258.751 126.711,259.199 126.926 C 259.931 127.277,263.044 130.405,264.976 132.731 C 265.383 133.221,266.050 133.971,266.458 134.396 C 268.099 136.110,267.988 137.581,266.163 138.309 C 265.006 138.771,264.422 138.511,263.835 137.273 C 263.532 136.636,263.279 136.462,262.681 136.483 C 261.766 136.516,259.063 137.450,259.063 137.733 C 259.063 137.843,258.896 137.869,258.691 137.790 C 258.473 137.706,258.262 137.871,258.179 138.188 C 258.079 138.568,257.726 138.777,256.989 138.891 C 256.412 138.980,255.329 139.224,254.582 139.433 C 252.881 139.909,247.241 140.500,246.632 140.266 C 245.942 140.002,240.219 140.083,237.610 140.394 C 229.887 141.315,194.103 141.643,191.039 140.821 C 189.343 140.366,187.660 138.930,187.070 137.435 C 186.811 136.780,187.206 134.963,187.607 134.963 C 187.712 134.963,188.029 134.566,188.312 134.080 C 188.594 133.595,190.789 131.224,193.190 128.811 C 200.741 121.225,202.426 119.388,203.047 118.069 C 203.744 116.587,203.496 116.225,202.399 117.124 C 201.976 117.471,201.173 118.030,200.616 118.367 C 200.058 118.704,199.334 119.356,199.006 119.817 C 198.678 120.277,197.296 121.766,195.934 123.124 C 194.573 124.483,192.867 126.327,192.144 127.223 C 191.421 128.119,189.978 129.704,188.937 130.745 C 185.474 134.209,184.889 135.529,185.555 138.369 C 186.024 140.366,186.333 140.876,187.607 141.752 L 188.595 142.430 227.786 142.430 C 264.828 142.430,266.991 142.404,267.242 141.955 C 267.389 141.694,267.860 141.298,268.289 141.076 C 270.331 140.020,270.394 133.569,268.373 132.487 C 268.032 132.305,267.753 132.053,267.753 131.929 C 267.753 131.751,265.284 129.092,263.384 127.223 C 258.732 122.648,256.931 120.796,256.798 120.449 C 256.708 120.214,256.325 119.882,255.948 119.710 C 255.570 119.538,255.261 119.297,255.261 119.176 C 255.261 119.055,254.577 118.310,253.739 117.522 C 252.131 116.008,251.521 115.404,251.010 114.819 C 250.838 114.622,249.647 113.449,248.363 112.212 C 247.079 110.975,246.029 109.849,246.029 109.710 C 246.029 109.570,245.766 109.315,245.446 109.144 C 245.125 108.972,242.381 106.340,239.348 103.296 C 236.315 100.251,233.720 97.760,233.581 97.760 C 233.442 97.760,233.265 97.516,233.187 97.218 C 233.109 96.920,232.830 96.594,232.567 96.493 C 232.304 96.392,231.769 95.951,231.378 95.514 C 230.622 94.668,227.143 94.235,225.364 94.765 M224.779 101.763 C 223.633 102.028,224.681 102.854,226.301 102.964 C 227.423 103.039,228.064 102.625,227.506 102.185 C 227.093 101.859,225.459 101.606,224.779 101.763 M232.043 104.005 C 231.948 104.160,232.182 104.277,232.587 104.277 C 232.991 104.277,233.225 104.160,233.130 104.005 C 233.037 103.856,232.793 103.734,232.587 103.734 C 232.380 103.734,232.136 103.856,232.043 104.005 M206.979 112.749 C 206.541 113.188,206.565 114.233,207.017 114.406 C 207.437 114.567,208.401 113.106,208.146 112.695 C 207.919 112.328,207.375 112.353,206.979 112.749 M205.148 114.886 C 205.050 115.045,205.037 115.243,205.120 115.326 C 205.351 115.557,206.653 115.164,206.653 114.862 C 206.653 114.502,205.373 114.522,205.148 114.886 M150.035 152.601 C 148.999 152.743,148.937 152.806,148.677 154.002 C 148.256 155.938,147.967 156.144,145.677 156.144 C 143.546 156.144,141.786 157.055,141.044 158.543 C 140.877 158.877,140.482 159.427,140.165 159.764 C 138.304 161.746,139.907 165.898,143.185 167.584 C 144.486 168.253,150.993 168.058,151.596 167.331 C 151.847 167.028,151.935 165.144,151.935 160.049 C 151.935 152.291,151.947 152.338,150.035 152.601 M155.770 152.686 C 155.332 153.011,155.278 153.329,155.390 154.944 C 155.479 156.235,155.393 157.148,155.115 157.863 C 154.190 160.239,155.063 167.452,156.335 167.940 C 158.841 168.902,160.210 161.662,158.292 157.594 C 157.796 156.543,157.788 156.381,158.170 155.286 C 158.690 153.793,158.709 152.614,158.215 152.614 C 158.009 152.614,157.490 152.545,157.060 152.461 C 156.594 152.370,156.074 152.461,155.770 152.686 M206.321 152.522 C 205.269 152.702,203.009 154.975,202.584 156.282 C 202.390 156.878,202.065 157.607,201.862 157.902 C 201.269 158.763,201.418 160.936,202.204 162.902 C 203.172 165.320,203.437 165.672,205.213 166.895 L 206.754 167.957 209.487 167.957 C 212.393 167.957,214.507 167.137,214.950 165.839 C 215.402 164.513,213.422 164.415,211.713 165.679 C 208.907 167.753,203.950 164.333,203.940 160.316 C 203.930 155.910,209.133 152.136,211.798 154.617 C 213.183 155.907,215.572 155.681,214.844 154.328 C 213.920 152.615,210.290 151.846,206.321 152.522 M110.008 153.574 L 109.165 154.533 109.165 160.240 C 109.165 166.444,109.305 167.155,110.646 167.766 C 111.945 168.358,112.723 167.228,113.148 164.133 C 113.354 162.628,114.685 162.396,115.981 163.638 C 116.696 164.323,117.855 164.379,117.855 163.729 C 117.855 163.590,118.034 163.476,118.253 163.476 C 118.471 163.476,119.076 163.103,119.595 162.647 L 120.540 161.817 120.817 162.850 C 120.969 163.418,121.168 164.583,121.258 165.438 C 121.545 168.151,123.566 168.931,124.365 166.637 C 124.824 165.321,124.726 154.646,124.246 153.719 C 123.266 151.824,120.959 152.692,119.538 155.491 C 118.363 157.804,116.751 158.745,116.018 157.546 C 114.732 155.445,112.036 152.614,111.320 152.614 C 111.062 152.614,110.471 153.046,110.008 153.574 M284.973 154.154 C 284.886 154.427,284.621 155.114,284.384 155.681 C 283.988 156.627,283.990 156.871,284.410 158.668 C 284.667 159.764,284.866 161.722,284.864 163.120 C 284.862 164.560,284.980 165.690,285.143 165.791 C 285.299 165.887,285.728 166.444,286.097 167.029 C 286.831 168.191,288.265 168.505,289.320 167.734 C 289.778 167.399,289.755 167.331,288.954 166.657 C 286.675 164.739,286.654 158.817,288.923 157.643 C 290.310 156.926,290.454 156.471,289.360 156.265 C 288.503 156.105,287.298 155.097,286.991 154.286 C 286.784 153.737,285.141 153.629,284.973 154.154 M130.075 156.540 C 124.461 159.637,126.546 168.113,132.926 168.133 C 135.938 168.143,137.569 166.857,137.226 164.745 C 137.113 164.047,137.218 163.516,137.599 162.870 C 138.276 161.722,137.817 158.736,136.857 158.045 C 136.546 157.821,135.904 157.301,135.430 156.891 C 134.436 156.028,131.367 155.827,130.075 156.540 M164.290 156.353 C 164.066 156.462,163.638 156.759,163.340 157.012 C 163.041 157.265,162.507 157.700,162.153 157.978 C 160.208 159.505,160.584 164.956,162.761 166.792 L 164.142 167.957 166.647 167.957 L 169.152 167.957 170.252 166.883 C 171.594 165.572,171.594 165.613,170.290 164.881 C 169.436 164.401,169.089 164.338,168.508 164.559 C 166.143 165.458,164.692 164.537,164.725 162.156 C 164.757 159.760,165.969 158.910,168.323 159.632 C 169.202 159.902,169.417 159.860,170.364 159.233 L 171.423 158.532 170.297 157.406 C 169.155 156.264,165.717 155.661,164.290 156.353 M175.560 156.831 C 174.636 157.591,174.161 158.061,172.989 159.375 C 172.230 160.225,172.166 160.455,172.166 162.299 L 172.166 164.301 173.591 165.813 C 176.247 168.629,180.322 169.058,182.708 166.773 C 183.119 166.378,183.671 165.933,183.933 165.784 C 184.501 165.461,184.844 162.407,184.540 160.383 C 184.032 156.997,178.175 154.680,175.560 156.831 M187.951 157.253 C 186.408 158.482,186.234 159.154,186.876 161.408 C 187.287 162.849,187.770 163.400,188.827 163.635 C 189.802 163.851,189.240 164.235,187.894 164.271 C 185.954 164.324,186.359 167.159,188.394 167.769 C 190.326 168.348,193.890 168.012,193.890 167.251 C 193.890 167.116,194.053 167.006,194.251 167.006 C 194.685 167.006,195.146 166.120,195.361 164.873 C 195.549 163.774,195.036 162.586,193.780 161.214 L 192.879 160.231 193.511 159.817 C 193.858 159.589,194.254 159.403,194.390 159.403 C 194.865 159.403,195.291 158.610,195.115 158.054 C 194.427 155.887,190.254 155.420,187.951 157.253 M220.502 156.621 C 220.129 156.868,219.304 157.583,218.669 158.209 L 217.515 159.348 217.515 162.140 L 217.515 164.931 218.805 166.133 C 221.940 169.052,226.502 168.692,228.161 165.394 C 228.416 164.888,228.777 164.379,228.964 164.264 C 230.199 163.500,228.675 158.159,227.054 157.570 C 226.811 157.482,226.267 157.125,225.845 156.777 C 224.873 155.976,221.622 155.881,220.502 156.621 M232.205 157.000 C 231.780 158.221,231.837 166.376,232.278 167.411 L 232.624 168.223 233.141 167.434 C 233.511 166.870,233.704 165.941,233.817 164.178 C 233.984 161.571,234.241 160.789,235.540 158.927 C 236.393 157.704,237.720 157.331,238.382 158.129 C 239.066 158.953,240.336 162.656,240.496 164.291 C 241.018 169.641,242.091 168.724,242.091 162.927 L 242.091 158.603 241.073 157.614 C 240.513 157.070,240.054 156.505,240.054 156.358 C 240.054 156.191,239.063 156.149,237.407 156.244 C 233.708 156.457,233.739 156.456,233.088 156.293 C 232.618 156.175,232.444 156.315,232.205 157.000 M247.311 156.405 C 245.399 156.776,245.167 157.467,245.272 162.497 C 245.349 166.259,245.352 166.271,246.097 166.827 C 247.183 167.637,247.403 167.226,247.671 163.869 C 247.988 159.909,248.088 159.568,249.212 158.608 C 251.513 156.642,253.632 158.953,253.632 163.427 C 253.632 165.789,253.990 167.549,254.470 167.549 C 255.208 167.549,255.581 165.474,255.465 162.013 L 255.347 158.514 254.014 157.339 L 252.682 156.165 250.509 156.186 C 249.314 156.197,247.875 156.296,247.311 156.405 M261.012 156.891 C 260.580 157.301,260.020 157.760,259.767 157.909 C 258.209 158.830,258.424 166.463,260.008 166.463 C 260.218 166.463,260.557 166.702,260.762 166.993 C 261.841 168.535,266.559 168.528,267.357 166.983 C 268.213 165.329,267.475 164.605,266.107 165.757 C 264.766 166.885,263.540 166.732,262.118 165.259 C 260.188 163.260,260.647 162.933,265.385 162.933 C 269.875 162.933,270.939 161.655,268.539 159.144 C 268.107 158.692,267.753 158.209,267.753 158.071 C 267.753 156.369,262.523 155.454,261.012 156.891 M274.745 156.446 C 274.335 156.603,273.999 156.834,273.999 156.959 C 273.999 157.084,273.585 157.441,273.080 157.754 C 271.745 158.579,271.118 162.041,271.790 164.879 C 272.527 167.992,278.889 169.329,280.591 166.729 C 281.334 165.594,281.322 165.547,280.221 165.285 C 279.676 165.155,279.354 165.290,278.777 165.892 C 277.179 167.561,273.756 165.199,273.513 162.259 L 273.387 160.746 274.874 159.260 C 276.611 157.522,277.522 157.337,278.747 158.473 C 279.322 159.005,279.672 159.130,280.213 158.996 C 281.330 158.721,281.349 158.524,280.375 157.372 C 279.381 156.197,276.591 155.738,274.745 156.446 M224.085 157.995 C 224.280 158.267,224.839 158.722,225.327 159.007 C 226.287 159.568,226.764 160.727,226.720 162.390 C 226.624 165.957,223.084 167.541,220.808 165.034 C 218.511 162.504,219.378 158.994,222.590 157.823 C 223.650 157.436,223.686 157.441,224.085 157.995 M264.205 157.773 C 264.531 157.773,265.750 158.976,266.114 159.656 C 266.396 160.182,266.353 160.364,265.807 160.950 C 264.836 161.994,260.964 161.462,260.964 160.284 C 260.964 159.759,263.222 157.547,263.634 157.667 C 263.833 157.726,264.090 157.773,264.205 157.773 M147.068 159.915 C 148.870 161.013,148.758 163.471,146.861 164.452 C 144.594 165.624,142.761 162.383,144.572 160.406 C 145.620 159.262,145.905 159.205,147.068 159.915 M179.595 159.706 C 180.579 160.154,181.243 161.553,181.024 162.716 C 180.519 165.408,177.234 165.405,176.207 162.711 C 175.849 161.773,175.884 161.668,176.949 160.490 C 177.977 159.353,178.487 159.201,179.595 159.706 " stroke="none" fill="#216c96" fill-rule="evenodd"></path><path id="path2" d="M174.040 94.488 C 172.824 94.648,172.478 94.872,169.201 97.617 C 168.839 97.919,167.251 99.491,165.670 101.110 C 164.090 102.728,160.740 106.089,158.227 108.577 C 154.546 112.222,149.119 117.678,144.577 122.299 C 144.264 122.618,143.592 123.256,143.083 123.717 C 141.215 125.412,134.649 132.444,134.115 133.322 C 133.813 133.819,133.391 134.401,133.178 134.614 C 132.487 135.305,132.689 137.689,133.591 139.509 C 134.699 141.741,135.720 142.454,138.331 142.817 C 141.096 143.202,182.390 143.208,184.114 142.824 C 186.110 142.379,186.101 142.388,185.464 141.528 C 184.306 139.961,184.015 136.188,184.905 134.284 C 185.790 132.390,187.073 130.949,195.785 122.064 C 201.362 116.376,201.549 116.906,189.817 105.167 C 178.925 94.270,178.401 93.915,174.040 94.488 " stroke="none" fill="#ea3f92" fill-rule="evenodd"></path><path id="path3" d="M225.296 96.979 C 224.796 98.789,224.652 99.009,223.653 99.498 C 223.001 99.816,222.485 100.311,222.304 100.788 C 222.027 101.522,221.381 101.949,220.524 101.964 C 220.311 101.968,219.849 102.517,219.496 103.184 C 218.598 104.882,217.887 105.567,216.096 106.457 C 215.241 106.882,214.159 107.665,213.692 108.197 C 213.225 108.730,212.739 109.165,212.612 109.165 C 212.484 109.165,212.075 109.470,211.702 109.844 C 211.328 110.217,210.834 110.523,210.603 110.523 C 209.946 110.523,210.103 109.437,210.862 108.734 C 211.236 108.388,211.541 108.013,211.541 107.901 C 211.541 107.620,209.611 109.513,207.925 111.447 C 207.156 112.329,206.797 112.881,207.127 112.676 C 208.062 112.092,208.477 112.689,207.861 113.732 C 207.346 114.604,206.653 114.616,206.653 113.752 C 206.653 113.470,206.587 113.238,206.506 113.238 C 206.139 113.238,203.375 116.245,203.448 116.564 C 203.762 117.932,202.400 119.558,193.190 128.811 C 190.789 131.224,188.594 133.595,188.312 134.080 C 188.029 134.566,187.712 134.963,187.607 134.963 C 187.206 134.963,186.811 136.780,187.070 137.435 C 187.660 138.930,189.343 140.366,191.039 140.821 C 194.103 141.643,229.887 141.315,237.610 140.394 C 240.219 140.083,245.942 140.002,246.632 140.266 C 247.241 140.500,252.881 139.909,254.582 139.433 C 255.329 139.224,256.412 138.980,256.989 138.891 C 257.726 138.777,258.079 138.568,258.179 138.188 C 258.262 137.871,258.473 137.706,258.691 137.790 C 258.896 137.869,259.063 137.843,259.063 137.733 C 259.063 137.450,261.766 136.516,262.681 136.483 C 263.279 136.462,263.532 136.636,263.835 137.273 C 264.422 138.511,265.006 138.771,266.163 138.309 C 267.988 137.581,268.099 136.110,266.458 134.396 C 266.050 133.971,265.383 133.221,264.976 132.731 C 263.044 130.405,259.931 127.277,259.199 126.926 C 258.751 126.711,258.079 126.369,257.705 126.167 C 257.332 125.964,256.542 125.569,255.949 125.289 C 254.566 124.635,253.089 123.211,253.089 122.531 C 253.089 122.241,252.722 121.541,252.274 120.978 C 251.826 120.414,251.460 119.673,251.460 119.330 C 251.460 118.670,251.230 118.393,249.786 117.313 C 249.288 116.940,248.402 116.176,247.818 115.615 C 247.234 115.055,246.607 114.596,246.424 114.596 C 246.240 114.596,245.887 114.168,245.639 113.646 C 245.391 113.123,245.006 112.695,244.784 112.695 C 244.561 112.695,243.806 112.145,243.104 111.473 C 242.403 110.801,241.705 110.238,241.553 110.223 C 241.401 110.207,240.817 110.166,240.256 110.131 C 238.999 110.052,239.020 110.073,238.737 108.557 C 238.609 107.874,238.245 106.906,237.928 106.407 C 237.610 105.908,237.142 105.102,236.887 104.616 C 236.579 104.031,236.224 103.734,235.829 103.734 C 234.626 103.734,233.486 103.373,233.346 102.948 C 232.761 101.177,232.599 100.991,231.710 101.066 C 231.228 101.106,230.684 100.990,230.502 100.807 C 230.319 100.625,230.282 100.475,230.420 100.475 C 230.558 100.475,230.369 100.264,229.999 100.005 C 229.630 99.746,229.267 99.554,229.192 99.578 C 228.969 99.650,228.683 98.995,228.511 98.017 C 228.305 96.848,228.363 96.890,226.759 96.736 C 225.752 96.639,225.373 96.702,225.296 96.979 M227.506 102.185 C 228.064 102.625,227.423 103.039,226.301 102.964 C 224.681 102.854,223.633 102.028,224.779 101.763 C 225.459 101.606,227.093 101.859,227.506 102.185 M233.130 104.005 C 233.225 104.160,232.991 104.277,232.587 104.277 C 232.182 104.277,231.948 104.160,232.043 104.005 C 232.136 103.856,232.380 103.734,232.587 103.734 C 232.793 103.734,233.037 103.856,233.130 104.005 M210.183 111.024 C 210.183 111.557,209.536 112.234,208.766 112.506 C 208.103 112.741,208.004 112.415,208.429 111.403 C 208.858 110.383,210.183 110.097,210.183 111.024 M206.653 114.862 C 206.653 115.164,205.351 115.557,205.120 115.326 C 205.037 115.243,205.050 115.045,205.148 114.886 C 205.373 114.522,206.653 114.502,206.653 114.862 " stroke="none" fill="#069cdb" fill-rule="evenodd"></path><path id="path4" d="M174.014 93.932 C 172.873 94.054,172.269 94.283,171.706 94.806 C 171.287 95.196,170.743 95.623,170.497 95.755 C 169.980 96.032,162.752 103.115,156.785 109.189 C 154.524 111.491,150.492 115.521,147.824 118.145 C 143.812 122.091,138.364 127.668,134.447 131.840 C 132.007 134.438,131.332 137.230,132.666 139.202 C 132.959 139.633,133.447 140.466,133.751 141.051 C 134.645 142.769,135.343 143.122,138.383 143.390 C 142.626 143.766,264.078 143.899,266.531 143.531 C 267.765 143.346,270.468 141.182,270.468 140.379 C 270.468 140.210,270.713 139.761,271.012 139.382 C 271.754 138.438,271.800 134.941,271.079 134.208 C 270.818 133.942,270.397 133.280,270.144 132.737 C 269.892 132.194,269.433 131.671,269.126 131.573 C 268.819 131.476,268.568 131.221,268.568 131.007 C 268.568 130.589,267.628 129.532,267.256 129.532 C 267.132 129.532,266.874 129.240,266.683 128.883 C 266.492 128.526,266.043 128.101,265.686 127.938 C 265.329 127.775,265.037 127.483,265.037 127.289 C 265.037 127.095,264.777 126.756,264.458 126.537 C 264.139 126.317,263.742 125.972,263.575 125.771 C 263.409 125.569,261.195 123.294,258.656 120.714 C 256.117 118.135,253.479 115.428,252.795 114.699 C 250.317 112.060,243.882 105.906,243.601 105.906 C 243.443 105.906,243.313 105.771,243.313 105.605 C 243.313 105.213,240.476 102.376,240.084 102.376 C 239.918 102.376,239.782 102.284,239.781 102.172 C 239.778 101.823,237.229 99.218,236.702 99.026 C 236.426 98.925,236.145 98.628,236.076 98.364 C 236.007 98.101,235.534 97.599,235.024 97.251 C 234.515 96.902,234.025 96.385,233.935 96.102 C 233.845 95.819,233.652 95.587,233.506 95.587 C 233.360 95.587,232.938 95.285,232.568 94.915 C 231.458 93.805,230.992 93.686,227.729 93.686 C 223.622 93.686,224.068 93.406,216.923 100.475 C 213.526 103.836,210.589 106.720,210.397 106.886 C 210.205 107.051,209.773 107.479,209.437 107.836 C 209.101 108.194,208.613 108.679,208.351 108.914 C 208.089 109.150,206.556 110.751,204.943 112.472 C 201.467 116.183,201.479 116.181,198.983 113.575 C 193.846 108.213,183.647 98.160,181.520 96.362 C 178.401 93.725,177.790 93.527,174.014 93.932 M178.925 94.953 C 180.666 96.094,191.907 107.018,196.877 112.399 C 200.624 116.455,200.538 117.216,195.785 122.064 C 187.073 130.949,185.790 132.390,184.905 134.284 C 184.015 136.188,184.306 139.961,185.464 141.528 C 186.101 142.388,186.110 142.379,184.114 142.824 C 182.390 143.208,141.096 143.202,138.331 142.817 C 135.720 142.454,134.699 141.741,133.591 139.509 C 132.689 137.689,132.487 135.305,133.178 134.614 C 133.391 134.401,133.813 133.819,134.115 133.322 C 134.649 132.444,141.215 125.412,143.083 123.717 C 143.592 123.256,144.264 122.618,144.577 122.299 C 149.119 117.678,154.546 112.222,158.227 108.577 C 160.740 106.089,164.090 102.728,165.670 101.110 C 167.251 99.491,168.839 97.919,169.201 97.617 C 172.478 94.872,172.824 94.648,174.040 94.488 C 175.895 94.244,178.174 94.461,178.925 94.953 M231.378 95.514 C 231.769 95.951,232.304 96.392,232.567 96.493 C 232.830 96.594,233.109 96.920,233.187 97.218 C 233.265 97.516,233.442 97.760,233.581 97.760 C 233.720 97.760,236.315 100.251,239.348 103.296 C 242.381 106.340,245.125 108.972,245.446 109.144 C 245.766 109.315,246.029 109.570,246.029 109.710 C 246.029 109.849,247.079 110.975,248.363 112.212 C 249.647 113.449,250.838 114.622,251.010 114.819 C 251.521 115.404,252.131 116.008,253.739 117.522 C 254.577 118.310,255.261 119.055,255.261 119.176 C 255.261 119.297,255.570 119.538,255.948 119.710 C 256.325 119.882,256.708 120.214,256.798 120.449 C 256.931 120.796,258.732 122.648,263.384 127.223 C 265.284 129.092,267.753 131.751,267.753 131.929 C 267.753 132.053,268.032 132.305,268.373 132.487 C 270.394 133.569,270.331 140.020,268.289 141.076 C 267.860 141.298,267.389 141.694,267.242 141.955 C 266.991 142.404,264.828 142.430,227.786 142.430 L 188.595 142.430 187.607 141.752 C 186.333 140.876,186.024 140.366,185.555 138.369 C 184.889 135.529,185.474 134.209,188.937 130.745 C 189.978 129.704,191.421 128.119,192.144 127.223 C 192.867 126.327,194.573 124.483,195.934 123.124 C 197.296 121.766,198.677 120.278,199.005 119.819 C 199.332 119.359,200.209 118.608,200.954 118.150 C 201.699 117.692,203.561 116.019,205.092 114.432 C 208.835 110.553,222.959 96.430,223.905 95.620 C 225.556 94.207,230.152 94.142,231.378 95.514 M149.835 151.498 C 148.411 151.730,147.726 152.402,147.726 153.568 C 147.726 154.661,147.093 155.055,145.332 155.061 C 143.032 155.068,142.390 155.342,140.513 157.120 C 138.700 158.837,138.221 159.028,138.221 158.035 C 138.221 157.749,137.885 157.304,137.475 157.047 C 137.064 156.791,136.476 156.283,136.169 155.920 C 134.784 154.284,129.745 154.791,127.861 156.757 C 125.549 159.168,125.220 166.191,127.386 166.879 C 127.655 166.964,127.950 167.273,128.043 167.566 C 128.371 168.598,129.719 169.010,132.793 169.019 C 136.852 169.030,138.213 168.274,138.225 166.001 C 138.232 164.806,138.656 164.361,138.853 165.343 C 138.950 165.830,139.326 166.364,139.774 166.650 C 140.189 166.915,140.690 167.349,140.885 167.614 C 141.757 168.792,142.748 169.000,147.260 168.949 C 152.029 168.895,152.517 168.750,152.786 167.312 C 152.939 166.497,152.992 166.450,153.244 166.902 C 155.047 170.137,159.946 169.313,159.946 165.775 C 159.946 165.407,160.068 165.105,160.217 165.105 C 160.367 165.105,160.489 165.354,160.489 165.659 C 160.489 168.771,168.276 170.414,171.196 167.918 C 172.413 166.878,173.105 166.768,173.522 167.546 C 174.519 169.410,181.475 169.755,183.094 168.021 C 184.136 166.906,185.644 166.574,185.855 167.413 C 186.379 169.502,194.090 169.735,195.574 167.707 C 196.123 166.956,196.884 163.870,196.597 163.558 C 195.957 162.863,195.571 160.432,195.954 159.514 C 196.302 158.682,196.292 158.154,195.902 156.678 C 195.521 155.238,189.218 154.530,187.600 155.744 C 186.018 156.931,185.748 157.685,185.693 161.049 L 185.643 164.155 185.489 161.064 C 185.345 158.152,185.297 157.948,184.661 157.534 C 184.290 157.292,183.576 156.711,183.074 156.241 C 181.245 154.530,175.995 154.648,174.070 156.444 C 172.685 157.735,172.892 157.742,171.242 156.350 L 169.876 155.199 166.651 155.199 L 163.425 155.199 162.730 156.006 C 162.347 156.451,161.783 156.940,161.475 157.093 C 161.152 157.255,160.813 157.802,160.675 158.388 C 160.159 160.571,159.674 158.746,159.674 154.619 C 159.674 152.487,159.633 152.328,158.977 151.898 C 157.411 150.872,153.705 151.546,153.185 152.952 C 152.979 153.509,152.963 153.503,152.788 152.807 C 152.641 152.221,151.292 151.123,150.930 151.294 C 150.885 151.316,150.392 151.407,149.835 151.498 M206.653 151.427 C 205.282 151.600,204.249 152.062,204.083 152.575 C 204.004 152.820,203.571 153.230,203.121 153.485 C 202.671 153.740,202.185 154.260,202.041 154.639 C 201.897 155.019,201.673 155.329,201.544 155.329 C 200.053 155.329,200.118 163.313,201.622 164.936 C 201.976 165.318,202.345 165.881,202.442 166.186 C 202.539 166.491,202.976 166.926,203.414 167.152 C 203.851 167.378,204.209 167.679,204.209 167.821 C 204.209 168.620,206.001 169.027,209.520 169.028 L 213.066 169.030 214.448 168.015 C 216.011 166.868,216.158 166.609,216.158 164.989 C 216.158 163.096,214.631 162.262,213.462 163.517 C 212.205 164.866,206.653 164.944,206.653 163.613 C 206.653 163.413,206.320 163.007,205.912 162.710 C 204.225 161.481,205.487 156.144,207.466 156.144 C 207.708 156.144,208.144 155.965,208.434 155.745 C 209.122 155.225,210.313 155.224,211.103 155.742 C 214.139 157.731,216.720 156.591,215.839 153.650 C 215.282 151.790,211.340 150.836,206.653 151.427 M110.115 151.898 C 108.213 152.762,108.215 152.757,108.215 160.178 C 108.215 168.702,108.281 168.907,111.061 168.907 C 113.218 168.907,113.816 168.319,114.584 165.438 C 114.861 164.399,114.937 164.321,115.307 164.691 C 115.915 165.299,116.916 165.473,117.878 165.138 C 119.027 164.737,119.758 165.272,120.341 166.941 C 121.080 169.053,123.046 169.733,124.770 168.473 C 125.809 167.713,125.920 153.347,124.895 152.322 C 124.272 151.699,122.178 151.374,121.415 151.783 C 120.595 152.222,118.941 153.926,118.941 154.332 C 118.941 154.674,116.952 156.959,116.654 156.959 C 116.568 156.959,116.497 156.770,116.497 156.539 C 116.497 156.308,116.166 155.789,115.761 155.385 C 115.356 154.981,114.767 154.162,114.452 153.564 C 113.594 151.937,111.662 151.195,110.115 151.898 M284.508 152.191 C 284.266 152.433,283.986 153.085,283.886 153.641 C 283.654 154.934,283.549 155.110,282.479 156.004 L 281.590 156.745 281.048 156.056 C 279.818 154.493,274.610 154.736,272.855 156.440 C 272.253 157.024,271.662 157.502,271.541 157.502 C 271.420 157.502,271.140 158.265,270.919 159.199 C 270.697 160.132,270.504 160.591,270.488 160.217 C 270.456 159.437,270.343 159.233,269.173 157.842 C 268.701 157.281,268.021 156.461,267.660 156.019 C 266.678 154.816,261.413 154.751,260.216 155.926 C 259.806 156.330,259.196 156.910,258.859 157.216 C 258.523 157.523,258.248 158.010,258.248 158.300 C 258.248 159.381,257.636 159.125,255.850 157.296 C 253.675 155.068,253.312 154.965,248.595 155.234 C 243.985 155.498,243.874 155.667,243.863 162.424 C 243.855 167.343,243.973 167.999,244.965 168.511 C 247.633 169.891,248.739 168.356,248.748 163.259 C 248.753 160.648,248.787 160.555,249.997 159.884 C 251.370 159.123,252.492 160.941,252.550 164.019 C 252.651 169.370,255.345 170.897,257.287 166.704 C 257.869 165.450,258.250 165.237,258.247 166.169 C 258.239 168.352,263.604 169.841,267.520 168.743 C 268.323 168.517,269.925 166.177,269.925 165.230 C 269.925 163.763,270.633 163.510,270.854 164.898 C 271.067 166.232,271.668 167.278,272.221 167.278 C 272.432 167.278,272.682 167.522,272.777 167.821 C 273.366 169.679,279.876 169.644,281.670 167.774 C 283.976 165.369,282.174 163.270,278.769 164.394 C 276.832 165.034,275.927 164.734,275.199 163.210 L 274.635 162.028 275.214 160.932 C 275.945 159.550,277.168 159.130,278.546 159.787 C 279.926 160.445,281.524 160.342,282.595 159.525 C 283.094 159.144,283.514 158.869,283.528 158.914 C 283.541 158.958,283.639 160.721,283.746 162.830 C 284.036 168.588,285.305 169.745,290.231 168.747 C 292.462 168.295,291.867 165.775,289.274 164.688 L 288.391 164.318 288.395 162.200 C 288.400 159.813,288.499 159.559,289.532 159.307 C 292.102 158.678,292.612 155.329,290.138 155.329 C 289.013 155.329,288.428 154.853,288.225 153.771 C 287.914 152.111,285.580 151.119,284.508 152.191 M151.935 160.049 C 151.935 165.144,151.847 167.028,151.596 167.331 C 150.993 168.058,144.486 168.253,143.185 167.584 C 139.907 165.898,138.304 161.746,140.165 159.764 C 140.482 159.427,140.877 158.877,141.044 158.543 C 141.786 157.055,143.546 156.144,145.677 156.144 C 147.967 156.144,148.256 155.938,148.677 154.002 C 148.937 152.806,148.999 152.743,150.035 152.601 C 151.947 152.338,151.935 152.291,151.935 160.049 M158.215 152.614 C 158.709 152.614,158.690 153.793,158.170 155.286 C 157.788 156.381,157.796 156.543,158.292 157.594 C 160.210 161.662,158.841 168.902,156.335 167.940 C 155.063 167.452,154.190 160.239,155.115 157.863 C 155.393 157.148,155.479 156.235,155.390 154.944 C 155.241 152.783,155.644 152.184,157.060 152.461 C 157.490 152.545,158.009 152.614,158.215 152.614 M213.854 153.158 C 214.904 154.140,215.175 154.742,214.781 155.216 C 214.323 155.768,212.680 155.439,211.798 154.617 C 209.133 152.136,203.930 155.910,203.940 160.316 C 203.950 164.333,208.907 167.753,211.713 165.679 C 213.422 164.415,215.402 164.513,214.950 165.839 C 214.507 167.137,212.393 167.957,209.487 167.957 L 206.754 167.957 205.213 166.895 C 202.387 164.949,200.499 159.882,201.862 157.902 C 202.065 157.607,202.390 156.878,202.584 156.282 C 203.009 154.975,205.269 152.702,206.321 152.522 C 208.748 152.109,213.127 152.478,213.854 153.158 M112.854 153.671 C 114.071 154.881,115.333 156.426,116.018 157.546 C 116.751 158.745,118.363 157.804,119.538 155.491 C 120.959 152.692,123.266 151.824,124.246 153.719 C 124.726 154.646,124.824 165.321,124.365 166.637 C 123.566 168.931,121.545 168.151,121.258 165.438 C 121.168 164.583,120.969 163.418,120.817 162.850 L 120.540 161.817 119.595 162.647 C 119.076 163.103,118.471 163.476,118.253 163.476 C 118.034 163.476,117.855 163.590,117.855 163.729 C 117.855 164.379,116.696 164.323,115.981 163.638 C 114.685 162.396,113.354 162.628,113.148 164.133 C 112.723 167.228,111.945 168.358,110.646 167.766 C 109.305 167.155,109.165 166.444,109.165 160.240 L 109.165 154.533 110.008 153.574 C 111.081 152.351,111.542 152.367,112.854 153.671 M286.991 154.286 C 287.298 155.097,288.503 156.105,289.360 156.265 C 290.454 156.471,290.310 156.926,288.923 157.643 C 286.654 158.817,286.675 164.739,288.954 166.657 C 289.755 167.331,289.778 167.399,289.320 167.734 C 288.265 168.505,286.831 168.191,286.097 167.029 C 285.728 166.444,285.299 165.887,285.143 165.791 C 284.980 165.690,284.862 164.560,284.864 163.120 C 284.866 161.722,284.667 159.764,284.410 158.668 C 283.990 156.871,283.988 156.627,284.384 155.681 C 284.621 155.114,284.886 154.427,284.973 154.154 C 285.141 153.629,286.784 153.737,286.991 154.286 M220.481 155.280 C 218.956 155.683,217.004 157.803,216.705 159.381 C 215.983 163.187,216.518 167.006,217.772 167.006 C 218.028 167.006,218.397 167.304,218.592 167.667 C 219.126 168.664,220.179 168.955,223.285 168.963 C 227.035 168.973,228.085 168.330,230.206 164.725 C 231.601 162.355,230.199 158.370,227.145 156.023 C 226.264 155.346,222.019 154.873,220.481 155.280 M234.216 155.238 C 231.020 155.387,231.093 155.234,231.093 161.859 C 231.093 168.617,231.461 169.710,233.414 168.741 C 234.865 168.020,235.212 167.222,235.449 164.060 C 235.742 160.140,235.961 159.617,237.260 159.726 C 238.478 159.828,238.630 160.212,238.669 163.288 C 238.718 167.106,239.615 168.915,241.454 168.903 C 243.028 168.893,243.313 168.052,243.313 163.424 C 243.313 155.981,242.078 154.870,234.216 155.238 M135.430 156.891 C 135.904 157.301,136.546 157.821,136.857 158.045 C 137.817 158.736,138.276 161.722,137.599 162.870 C 137.218 163.516,137.113 164.047,137.226 164.745 C 137.569 166.857,135.938 168.143,132.926 168.133 C 126.546 168.113,124.461 159.637,130.075 156.540 C 131.367 155.827,134.436 156.028,135.430 156.891 M170.297 157.406 L 171.423 158.532 170.364 159.233 C 169.417 159.860,169.202 159.902,168.323 159.632 C 165.969 158.910,164.757 159.760,164.725 162.156 C 164.692 164.537,166.143 165.458,168.508 164.559 C 169.089 164.338,169.436 164.401,170.290 164.881 C 171.594 165.613,171.594 165.572,170.252 166.883 L 169.152 167.957 166.647 167.957 L 164.142 167.957 162.761 166.792 C 160.584 164.956,160.208 159.505,162.153 157.978 C 162.507 157.700,163.041 157.265,163.340 157.012 C 164.997 155.605,168.706 155.815,170.297 157.406 M181.204 156.520 C 182.813 157.213,184.328 158.967,184.540 160.383 C 184.844 162.407,184.501 165.461,183.933 165.784 C 183.671 165.933,183.119 166.378,182.708 166.773 C 180.322 169.058,176.247 168.629,173.591 165.813 L 172.166 164.301 172.166 162.299 C 172.166 160.192,172.227 160.068,174.279 157.977 C 176.132 156.088,178.866 155.513,181.204 156.520 M193.943 156.819 C 195.314 157.751,195.600 159.403,194.390 159.403 C 194.254 159.403,193.858 159.589,193.511 159.817 L 192.879 160.231 193.780 161.214 C 195.036 162.586,195.549 163.774,195.361 164.873 C 195.146 166.120,194.685 167.006,194.251 167.006 C 194.053 167.006,193.890 167.116,193.890 167.251 C 193.890 168.012,190.326 168.348,188.394 167.769 C 186.359 167.159,185.954 164.324,187.894 164.271 C 189.240 164.235,189.802 163.851,188.827 163.635 C 187.437 163.326,186.558 161.656,186.558 159.326 C 186.558 156.754,191.419 155.104,193.943 156.819 M225.845 156.777 C 226.267 157.125,226.811 157.482,227.054 157.570 C 228.675 158.159,230.199 163.500,228.964 164.264 C 228.777 164.379,228.416 164.888,228.161 165.394 C 226.502 168.692,221.940 169.052,218.805 166.133 L 217.515 164.931 217.515 162.140 L 217.515 159.348 218.669 158.209 C 220.969 155.939,224.076 155.319,225.845 156.777 M234.216 156.418 C 234.515 156.406,235.950 156.328,237.407 156.244 C 239.063 156.149,240.054 156.191,240.054 156.358 C 240.054 156.505,240.513 157.070,241.073 157.614 L 242.091 158.603 242.091 162.927 C 242.091 168.724,241.018 169.641,240.496 164.291 C 240.336 162.656,239.066 158.953,238.382 158.129 C 237.720 157.331,236.393 157.704,235.540 158.927 C 234.241 160.789,233.984 161.571,233.817 164.178 C 233.704 165.941,233.511 166.870,233.141 167.434 L 232.624 168.223 232.278 167.411 C 231.837 166.376,231.780 158.221,232.205 157.000 C 232.444 156.315,232.618 156.175,233.088 156.293 C 233.410 156.374,233.917 156.430,234.216 156.418 M254.014 157.339 L 255.347 158.514 255.465 162.013 C 255.581 165.474,255.208 167.549,254.470 167.549 C 253.990 167.549,253.632 165.789,253.632 163.427 C 253.632 158.953,251.513 156.642,249.212 158.608 C 248.088 159.568,247.988 159.909,247.671 163.869 C 247.403 167.226,247.183 167.637,246.097 166.827 C 245.352 166.271,245.349 166.259,245.272 162.497 C 245.147 156.481,245.351 156.235,250.509 156.186 L 252.682 156.165 254.014 157.339 M266.613 156.982 C 267.240 157.443,267.753 157.933,267.753 158.071 C 267.753 158.209,268.107 158.692,268.539 159.144 C 270.939 161.655,269.875 162.933,265.385 162.933 C 260.647 162.933,260.188 163.260,262.118 165.259 C 263.540 166.732,264.766 166.885,266.107 165.757 C 267.475 164.605,268.213 165.329,267.357 166.983 C 266.559 168.528,261.841 168.535,260.762 166.993 C 260.557 166.702,260.218 166.463,260.008 166.463 C 258.424 166.463,258.209 158.830,259.767 157.909 C 260.020 157.760,260.580 157.301,261.012 156.891 C 262.215 155.747,264.995 155.792,266.613 156.982 M280.375 157.372 C 281.349 158.524,281.330 158.721,280.213 158.996 C 279.672 159.130,279.322 159.005,278.747 158.473 C 277.522 157.337,276.611 157.522,274.874 159.260 L 273.387 160.746 273.513 162.259 C 273.756 165.199,277.179 167.561,278.777 165.892 C 279.354 165.290,279.676 165.155,280.221 165.285 C 281.322 165.547,281.334 165.594,280.591 166.729 C 278.889 169.329,272.527 167.992,271.790 164.879 C 271.118 162.041,271.745 158.579,273.080 157.754 C 273.585 157.441,273.999 157.084,273.999 156.959 C 273.999 155.636,279.192 155.973,280.375 157.372 M222.590 157.823 C 220.569 158.560,218.908 161.374,219.504 163.051 C 221.486 168.629,228.069 166.204,226.479 160.482 C 226.302 159.846,225.916 159.351,225.327 159.007 C 224.839 158.722,224.280 158.267,224.085 157.995 C 223.686 157.441,223.650 157.436,222.590 157.823 M262.118 158.750 C 260.378 160.543,260.726 161.176,263.615 161.472 C 265.537 161.669,266.728 160.804,266.114 159.656 C 265.750 158.976,264.531 157.773,264.205 157.773 C 264.090 157.773,263.833 157.726,263.634 157.667 C 263.435 157.609,262.753 158.096,262.118 158.750 M144.572 160.406 C 142.761 162.383,144.594 165.624,146.861 164.452 C 148.758 163.471,148.870 161.013,147.068 159.915 C 145.905 159.205,145.620 159.262,144.572 160.406 M176.949 160.490 C 175.884 161.668,175.849 161.773,176.207 162.711 C 177.234 165.405,180.519 165.408,181.024 162.716 C 181.539 159.971,178.780 158.463,176.949 160.490 M224.599 159.957 L 225.686 160.512 225.606 162.292 C 225.516 164.303,224.777 164.875,222.597 164.620 C 220.471 164.372,220.263 159.917,222.362 159.595 C 222.758 159.534,223.179 159.466,223.297 159.443 C 223.415 159.421,224.001 159.652,224.599 159.957 M170.223 161.229 C 171.139 160.772,171.351 160.969,171.351 162.275 C 171.351 162.890,171.261 162.928,169.909 162.897 C 169.116 162.879,168.206 163.027,167.886 163.227 C 167.391 163.536,167.160 163.521,166.323 163.121 C 164.246 162.131,166.190 160.377,168.401 161.245 C 169.281 161.591,169.502 161.589,170.223 161.229 M179.362 161.446 L 180.177 162.112 179.442 162.794 C 178.243 163.906,177.083 162.907,177.868 161.439 C 178.310 160.613,178.344 160.613,179.362 161.446 M146.789 161.868 C 146.887 162.028,146.686 162.459,146.341 162.826 L 145.714 163.494 145.356 162.811 C 144.667 161.496,146.012 160.611,146.789 161.868 " stroke="none" fill="#9fadba" fill-rule="evenodd"></path></g></svg>