<?xml version="1.0" standalone="no"?>
<!DOCTYPE svg PUBLIC "-//W3C//DTD SVG 20010904//EN"
 "http://www.w3.org/TR/2001/REC-SVG-20010904/DTD/svg10.dtd">
<svg version="1.0" xmlns="http://www.w3.org/2000/svg"
 width="1080.000000pt" height="1080.000000pt" viewBox="0 0 1080.000000 1080.000000"
 preserveAspectRatio="xMidYMid meet">

<g transform="translate(0.000000,1080.000000) scale(0.100000,-0.100000)"
fill="#000000" stroke="none">
<path d="M3929 7800 c-117 -21 -72 21 -1245 -1153 -1062 -1062 -1103 -1104
-1124 -1162 -31 -82 -31 -197 0 -277 42 -113 154 -205 275 -228 44 -8 1022
-10 3695 -8 l3635 3 57 23 c76 31 147 96 188 174 31 57 35 73 38 161 4 96 4
100 -31 170 -34 68 -94 129 -1124 1158 -833 830 -1099 1090 -1134 1107 -107
51 -217 51 -329 0 -61 -27 -109 -73 -703 -666 l-637 -637 -648 647 c-601 600
-651 647 -702 666 -68 25 -150 33 -211 22z m2885 -1336 c247 -137 460 -306
544 -434 84 -127 126 -212 163 -324 21 -65 39 -124 39 -131 0 -8 7 -21 15 -29
14 -14 3 -22 -112 -79 -97 -49 -143 -66 -188 -71 -85 -9 -175 -24 -365 -58
-91 -16 -244 -41 -340 -54 -96 -13 -191 -26 -210 -29 -19 -3 -62 -10 -95 -15
-55 -8 -143 -18 -220 -24 -16 -2 -120 -11 -230 -21 -110 -9 -286 -25 -392 -34
-289 -25 -399 -11 -523 69 -52 34 -72 71 -72 136 0 58 62 172 147 269 141 162
468 494 568 577 54 45 101 86 105 93 4 6 57 31 117 55 61 24 144 59 185 78 98
44 194 78 250 88 74 12 319 20 409 12 79 -7 91 -11 205 -74z"/>
<path d="M2476 4425 c-26 -24 -26 -26 -26 -160 l0 -137 -39 31 c-140 111 -343
62 -428 -103 -23 -43 -28 -67 -31 -156 -5 -123 14 -189 74 -259 56 -65 123
-95 214 -95 82 -1 113 11 175 65 33 29 35 30 35 10 0 -66 108 -96 155 -45 l25
27 0 388 c0 263 -4 396 -11 412 -23 50 -100 62 -143 22z m-121 -379 c116 -49
122 -259 9 -323 -102 -59 -216 8 -231 134 -16 142 98 240 222 189z"/>
<path d="M2845 4440 c-67 -27 -66 -123 2 -155 69 -33 153 6 153 71 0 18 -3 40
-6 49 -14 36 -98 56 -149 35z"/>
<path d="M5808 4431 c-78 -25 -136 -61 -185 -113 -94 -103 -128 -201 -121
-353 4 -87 9 -111 36 -168 93 -200 309 -298 527 -241 100 25 215 105 215 148
0 52 -45 60 -99 17 -210 -166 -487 -87 -562 161 -54 178 23 369 180 445 47 23
70 27 141 28 72 0 94 -4 143 -27 32 -15 72 -39 89 -53 34 -29 69 -32 92 -9 23
22 20 42 -11 73 -98 98 -298 139 -445 92z"/>
<path d="M216 4384 l-26 -27 0 -379 0 -379 25 -24 c30 -31 92 -34 126 -6 24
19 24 22 29 253 l5 233 79 -120 c43 -66 87 -130 99 -142 22 -25 74 -31 106
-13 10 5 58 71 107 147 l89 138 5 -238 c5 -236 5 -239 29 -258 35 -29 96 -25
126 7 l25 27 0 377 0 377 -26 27 c-21 21 -36 26 -73 26 -26 0 -56 -7 -68 -15
-12 -8 -74 -101 -138 -205 -65 -105 -118 -190 -120 -190 -2 0 -52 80 -111 178
-133 218 -146 232 -212 232 -40 0 -54 -5 -76 -26z"/>
<path d="M10316 4394 c-12 -12 -16 -36 -16 -100 0 -84 0 -84 -26 -84 -38 0
-64 -18 -64 -43 0 -32 18 -47 56 -47 l33 0 3 -232 c3 -222 4 -235 26 -269 31
-51 82 -74 163 -73 73 0 119 21 119 53 0 32 -24 43 -77 35 -59 -7 -109 13
-123 52 -6 14 -10 117 -10 230 l0 204 93 0 c99 0 117 7 117 47 0 33 -29 43
-124 43 l-86 0 0 83 c0 69 -3 87 -18 100 -23 21 -46 22 -66 1z"/>
<path d="M1413 4202 c-96 -34 -166 -107 -199 -204 -12 -37 -15 -73 -12 -142 5
-102 23 -148 84 -216 103 -113 324 -133 452 -40 48 34 62 72 41 109 -25 44
-59 46 -134 10 -56 -27 -74 -31 -121 -27 -33 3 -66 13 -82 25 -29 21 -64 81
-56 95 3 4 94 8 203 8 194 0 198 0 219 23 46 48 18 192 -53 275 -75 87 -227
125 -342 84z m168 -147 c34 -18 69 -69 69 -102 0 -23 -2 -23 -136 -23 l-136 0
7 28 c22 90 117 137 196 97z"/>
<path d="M3363 4202 c-115 -41 -188 -122 -219 -241 -21 -82 -12 -156 27 -238
34 -71 80 -115 159 -152 74 -35 220 -38 290 -5 103 48 140 122 87 172 -32 30
-67 28 -130 -8 -87 -49 -169 -36 -223 35 -23 31 -29 49 -32 104 -3 74 19 126
71 165 44 33 132 29 183 -6 59 -41 120 -33 143 19 17 37 13 59 -14 91 -59 70
-233 103 -342 64z"/>
<path d="M4047 4200 c-295 -94 -317 -505 -33 -631 68 -29 177 -36 251 -15 199
57 306 270 229 454 -69 167 -264 251 -447 192z m193 -162 c105 -53 126 -213
38 -295 -50 -46 -124 -56 -188 -23 -108 55 -129 213 -38 297 51 48 120 55 188
21z"/>
<path d="M4788 4207 c-61 -18 -111 -56 -133 -104 -24 -50 -24 -138 -1 -181 22
-43 93 -87 181 -113 99 -30 125 -45 125 -73 0 -47 -52 -62 -136 -40 -32 8 -74
24 -92 35 -65 38 -132 12 -132 -51 0 -38 27 -65 96 -97 163 -74 359 -41 413
70 25 51 28 135 7 175 -29 55 -79 87 -200 128 -112 38 -136 62 -100 98 23 24
96 20 164 -9 67 -28 101 -26 125 8 21 30 19 69 -5 94 -48 53 -221 85 -312 60z"/>
<path d="M6640 4207 c-88 -25 -164 -90 -212 -179 -20 -37 -23 -58 -23 -148 0
-90 3 -112 23 -152 32 -65 94 -125 160 -156 49 -23 70 -27 147 -27 106 0 157
19 230 86 72 66 98 126 103 236 4 86 2 96 -25 156 -56 119 -157 187 -286 193
-40 2 -92 -2 -117 -9z m200 -102 c107 -54 157 -187 118 -316 -15 -52 -73 -117
-122 -140 -88 -40 -214 -15 -273 55 -89 106 -83 278 13 368 68 63 177 77 264
33z"/>
<path d="M7485 4208 c-40 -15 -85 -46 -112 -77 l-22 -26 -1 37 c0 20 -7 44
-16 52 -18 19 -55 21 -72 4 -17 -17 -17 -619 0 -636 16 -16 65 -15 75 1 4 6
10 109 13 228 5 207 6 217 29 251 38 54 84 81 149 86 78 5 137 -26 169 -87 22
-42 23 -55 23 -248 0 -122 4 -212 10 -224 12 -22 59 -26 78 -7 18 18 17 430
-2 491 -31 104 -104 158 -220 163 -39 2 -84 -1 -101 -8z"/>
<path d="M8257 4206 c-42 -15 -106 -61 -114 -82 -10 -27 -23 -14 -23 24 0 43
-14 62 -45 62 -44 0 -45 -8 -45 -330 0 -322 1 -330 45 -330 42 0 45 15 45 209
0 103 5 202 10 222 42 149 229 201 323 90 40 -48 47 -90 47 -302 0 -138 3
-198 12 -207 20 -20 56 -14 74 13 24 37 16 440 -10 503 -47 111 -197 171 -319
128z"/>
<path d="M8975 4203 c-101 -37 -170 -115 -200 -228 -18 -72 -19 -113 -1 -187
26 -112 105 -198 214 -233 67 -22 178 -17 243 12 55 25 119 79 119 102 0 39
-55 56 -81 25 -19 -23 -98 -60 -143 -67 -107 -17 -221 54 -251 156 -8 28 -15
52 -15 54 0 2 108 3 239 3 217 0 241 2 262 18 22 18 22 22 11 86 -27 167 -127
264 -282 273 -45 2 -80 -2 -115 -14z m200 -97 c43 -26 87 -93 100 -153 l7 -33
-211 0 -211 0 6 28 c36 159 181 233 309 158z"/>
<path d="M9732 4201 c-97 -33 -180 -120 -208 -218 -21 -72 -15 -181 13 -245
87 -194 339 -259 508 -130 60 45 72 85 31 103 -21 10 -30 9 -48 -5 -92 -66
-101 -70 -164 -74 -156 -10 -266 112 -251 279 10 114 94 207 196 217 73 7 111
-4 179 -49 50 -33 64 -39 80 -30 48 26 31 73 -45 121 -80 51 -197 64 -291 31z"/>
<path d="M2832 4187 c-22 -23 -22 -30 -22 -306 l0 -282 25 -24 c34 -35 93 -34
129 1 l26 27 0 279 0 279 -25 24 c-33 34 -102 35 -133 2z"/>
</g>
</svg>
